<mxfile host="app.diagrams.net" modified="2023-08-23T08:22:28.267Z" agent="Mozilla/5.0 (Windows NT 10.0; Win64; x64) AppleWebKit/537.36 (KHTML, like Gecko) Chrome/115.0.0.0 Safari/537.36 Edg/115.0.1901.203" version="21.6.5" etag="yJIPT0RCfCJ1HEljCWTc" type="github">
  <diagram name="第 1 页" id="GI7S_xkxL19uhpW_UwVE">
    <mxGraphModel>
      <root>
        <mxCell id="0" />
        <mxCell id="1" parent="0" />
      </root>
    </mxGraphModel>
  </diagram>
</mxfile>
